<svg xmlns="http://www.w3.org/2000/svg" version="1.1" width="512" height="512" x="0" y="0" viewBox="0 0 512 512"
     style="enable-background:new 0 0 512 512" xml:space="preserve" class=""><g><path fill="#dfeef4" d="M256 68.191c103.724 0 187.809 84.085 187.809 187.809S359.724 443.809 256 443.809l-37.087-186.241z" opacity="1" data-original="#dfeef4" class=""></path><path fill="#f2fbff" d="M256 443.809c-103.724 0-187.809-84.085-187.809-187.809S152.276 68.191 256 68.191z" opacity="1" data-original="#f2fbff" class=""></path><path fill="#cfe2e8" d="M297.207 392.3A188.427 188.427 0 0 1 256 387.754l-26.785 26.872L256 443.809c71.254 0 133.238-39.681 165.064-98.15-33.062 29.032-76.4 46.641-123.857 46.641z" opacity="1" data-original="#cfe2e8" class=""></path><path fill="#dfeef4" d="M109.398 204.491c0-32.471 8.242-63.016 22.745-89.66C92.942 149.252 68.191 199.732 68.191 256c0 103.724 84.085 187.809 187.809 187.809v-56.056c-83.9-18.783-146.602-93.695-146.602-183.262z" opacity="1" data-original="#dfeef4" class=""></path><path fill="#99e6fc" d="M342.807 406.354c51.877-30.016 86.778-86.109 86.778-150.354 0-31.623-8.456-61.272-23.231-86.807l33.334-29.866 38.051-11.348C499.529 165.638 512 209.362 512 256c0 41.859-10.05 81.37-27.863 116.257-22.507 44.078-63.065 70.978-105.771 95.687l-23.829-21.773z" opacity="1" data-original="#99e6fc" class=""></path><path fill="#62dbfb" d="M398.444 453.015a254.867 254.867 0 0 1-22.119 11.394l-3.852 5.818 11.548 7.512c42.706-24.71 77.609-61.404 100.116-105.483-21.883 33.106-51.25 60.831-85.693 80.759z" opacity="1" data-original="#62dbfb" class=""></path><path fill="#cb97e7" d="M169.193 406.354C117.316 376.339 82.414 320.245 82.414 256c0-95.869 77.717-173.586 173.586-173.586l20.604-39.909L256 0C166.661 0 88.018 45.769 42.219 115.132 15.539 155.541 9.524 203.954 9.524 256c0 94.747 55.006 167.678 131.512 211.944l20.559-20.286z" opacity="1" data-original="#cb97e7" class=""></path><path fill="#bd80e1" d="M14.423 231.276c0-41.812 10.021-81.286 27.797-116.143C15.539 155.541 0 203.954 0 256c0 94.747 51.472 177.473 127.979 221.739l18.789-8.519-4.449-16.254C65.873 408.684 14.423 325.977 14.423 231.276z" opacity="1" data-original="#bd80e1" class=""></path><path fill="#fe8991" d="M317.811 276.604a61.585 61.585 0 0 1-5.468 25.433c-9.697 21.449-53.037 23.377-56.343 23.424-12.647.18-52.89-14.72-52.89-48.857 0-50.692 34.812-88.993 48.706-99.883.917-.719 1.704-1.318 2.34-1.794a3.077 3.077 0 0 1 3.692.004c10.285 7.692 59.963 47.644 59.963 101.673z" opacity="1" data-original="#fe8991" class=""></path><path fill="#f77283" d="M286.905 307.509c-34.137 0-61.811-27.674-61.811-61.811 0-27.406 12.783-51.188 26.722-68.977-13.889 10.885-57.627 49.185-57.627 99.883 0 34.137 27.674 61.811 61.811 61.811 25.069 0 46.645-14.93 56.343-36.378a61.607 61.607 0 0 1-25.438 5.472z" opacity="1" data-original="#f77283" class=""></path><path fill="#bbf39b" d="M342.807 406.354c-25.535 14.775-55.184 23.231-86.807 23.231s-61.272-8.456-86.807-23.231l-26.874 46.612-4.017 22.243c37.659 21.789 71.061 28.056 117.698 28.056s82.697-3.737 120.356-25.526l-.031-13.33z" opacity="1" data-original="#bbf39b" class=""></path><path fill="#9ae59c" d="M270.423 487.276c-46.638 0-90.445-12.52-128.104-34.309-.037-.021.037.021 0 0l-14.34 24.773C165.638 499.529 209.362 512 256 512s90.362-12.471 128.021-34.261l-7.696-13.33c-32.274 14.685-68.132 22.867-105.902 22.867z" opacity="1" data-original="#9ae59c" class=""></path><path fill="#fe8991" d="M406.354 169.193C376.339 117.316 320.245 82.414 256 82.414V0c94.747 0 177.473 51.472 221.739 127.979z" opacity="1" data-original="#fe8991" class=""></path><path fill="#f77283" d="M403.239 107.341a7.7 7.7 0 0 1-5.297-2.102c-23.34-21.983-51.817-38.444-82.351-47.604a7.726 7.726 0 0 1-5.18-9.62 7.725 7.725 0 0 1 9.621-5.181c32.821 9.845 63.427 27.535 88.506 51.156a7.727 7.727 0 0 1-5.299 13.351z" opacity="1" data-original="#f77283" class=""></path><path fill="#62dbfb" d="M412.383 410.968a7.727 7.727 0 0 1-5.624-13.024c36.31-38.55 56.307-88.96 56.307-141.944 0-16.074-1.847-32.082-5.491-47.58a7.726 7.726 0 0 1 5.753-9.289 7.726 7.726 0 0 1 9.29 5.753c3.915 16.655 5.901 33.853 5.901 51.116 0 56.939-21.49 111.111-60.51 152.539a7.707 7.707 0 0 1-5.626 2.429z" opacity="1" data-original="#62dbfb" class=""></path><path fill="#9ae59c" d="M256 478.519c-17.263 0-34.461-1.985-51.117-5.901a7.727 7.727 0 0 1 3.537-15.042c30.996 7.287 64.163 7.287 95.159 0a7.727 7.727 0 0 1 3.537 15.042c-16.655 3.916-33.853 5.901-51.116 5.901z" opacity="1" data-original="#9ae59c" class=""></path><path fill="#bd80e1" d="M99.617 410.968a7.708 7.708 0 0 1-5.626-2.429c-39.02-41.428-60.51-95.601-60.51-152.539 0-48.821 15.514-95.162 44.866-134.013 28.391-37.581 68.743-65.691 113.622-79.153a7.727 7.727 0 0 1 4.441 14.801C109.577 83.681 48.934 165.252 48.934 256c0 52.985 19.997 103.395 56.307 141.945a7.727 7.727 0 0 1-5.624 13.023z" opacity="1" data-original="#bd80e1" class=""></path></g></svg>