<svg xmlns="http://www.w3.org/2000/svg" version="1.1" width="512" height="512" x="0" y="0" viewBox="0 0 48 48"
     style="enable-background:new 0 0 512 512" xml:space="preserve" class=""><g><circle cx="24" cy="24" r="20" fill="#ff1e00" opacity="1" data-original="#ff1e00"></circle><path fill="#f01e00" d="M24 4v40c11.046 0 20-8.954 20-20S35.046 4 24 4z" opacity="1" data-original="#f01e00" class=""></path><path fill="#701c24" d="M33.93 30.63C33.84 30.4 31.59 25 24 25s-9.84 5.4-9.93 5.63a1 1 0 0 0 .55 1.29 1.001 1.001 0 0 0 1.309-.536l.001-.004C16 31.2 17.81 27 24 27s8 4.18 8.07 4.38A1 1 0 0 0 33 32a1 1 0 0 0 .931-1.368l-.001-.002zM10 15.71a1 1 0 0 1 1.29-.71l10 2.99a1.046 1.046 0 0 1-.58 2.01l-.71-.26a2.503 2.503 0 1 1-5-.24 2.57 2.57 0 0 1 .3-1.17L10.71 17a1 1 0 0 1-.71-1.29z" opacity="1" data-original="#701c24" class=""></path><path fill="#601621" d="m37.29 17-4.59 1.33c.192.361.294.762.3 1.17a2.503 2.503 0 1 1-5 .24l-.73.22a1.02 1.02 0 0 1-.56-1.96l10-2.99a1.036 1.036 0 1 1 .58 1.99zM33.93 30.63C33.84 30.4 31.59 25 24 25v2c6.18 0 8 4.18 8.07 4.38A1 1 0 0 0 33 32a1 1 0 0 0 .931-1.368l-.001-.002z" opacity="1" data-original="#601621" class=""></path><path fill="#701c24" d="M24 45C12.402 45 3 35.598 3 24S12.402 3 24 3s21 9.402 21 21-9.402 21-21 21zm0-40C13.507 5 5 13.507 5 24s8.507 19 19 19 19-8.507 19-19S34.493 5 24 5z" opacity="1" data-original="#701c24" class=""></path></g></svg>