<svg xmlns="http://www.w3.org/2000/svg" version="1.1" xmlns:xlink="http://www.w3.org/1999/xlink" width="512" height="512" x="0" y="0" viewBox="0 0 512 512" style="enable-background:new 0 0 512 512" xml:space="preserve" class=""><g><g data-name="Layer 2"><path d="M256 0C114.62 0 0 114.62 0 256s114.62 256 256 256 256-114.62 256-256S397.38 0 256 0zm0 78a91.89 91.89 0 1 1-91.89 91.89A91.89 91.89 0 0 1 256 78zm153.62 306.08a200 200 0 0 1-307.24 0 25.25 25.25 0 0 1-5.13-22.22 163.57 163.57 0 0 1 57.56-89.32 24.77 24.77 0 0 1 30-.43c19 14.13 43.91 22.69 71.15 22.69s52.14-8.56 71.15-22.69a24.77 24.77 0 0 1 30 .43 163.57 163.57 0 0 1 57.56 89.32 25.25 25.25 0 0 1-5.05 22.22z" data-name="Social Icon" fill="#000000" opacity="1" data-original="#000000" class=""></path></g></g></svg>