<svg xmlns="http://www.w3.org/2000/svg" version="1.1" xmlns:xlink="http://www.w3.org/1999/xlink" width="512" height="512" x="0" y="0" viewBox="0 0 512 512" style="enable-background:new 0 0 512 512" xml:space="preserve" class=""><g><path fill="#f6aee2" d="M157.212 256c0-54.559 44.229-98.788 98.788-98.788L276 95 256 0C114.615 0 0 114.615 0 256c0 70.692 28.654 134.693 74.981 181.019l70.543-30.543 40.622-80.623c-17.877-17.876-28.934-42.573-28.934-69.853z" opacity="1" data-original="#ffe477" class=""></path><path fill="#f6c2d8" d="m350.784 228.092 80.762-.835 70.077-43.578C470.412 77.514 372.266 0 256 0v157.212c44.866 0 82.74 29.912 94.784 70.88z" opacity="1" data-original="#ffb655" class=""></path><path fill="#e36bc8" d="M186.146 325.854 74.981 437.019C121.307 483.346 185.308 512 256 512l20-75.001-20-82.21c-27.28-.001-51.977-11.058-69.854-28.935z" opacity="1" data-original="#ff6c6c" class=""></path><path fill="#da8dc9" d="M347.915 292.275c-14.461 36.612-50.163 62.514-91.915 62.514V512c108.197 0 200.715-67.123 238.188-161.997l-71.271-48.127z" opacity="1" data-original="#1865a1" class=""></path><path fill="#e7789d" d="M354.788 256c0 12.807-2.438 25.045-6.873 36.275l146.273 57.728C505.683 320.901 512 289.188 512 256c0-25.119-3.635-49.386-10.377-72.322l-150.839 44.413A98.812 98.812 0 0 1 354.788 256z" opacity="1" data-original="#009986" class=""></path></g></svg>