<svg xmlns="http://www.w3.org/2000/svg" version="1.1" xmlns:xlink="http://www.w3.org/1999/xlink" width="512" height="512" x="0" y="0" viewBox="0 0 24 24" style="enable-background:new 0 0 512 512" xml:space="preserve"><g><g fill="#000"><path d="M6.5 1.991C5.12 1.991 4 3.11 4 4.49v15.004c0 1.38 1.12 2.498 2.5 2.498h11.107c1.38 0 2.5-1.118 2.5-2.498v-1.876a.551.551 0 0 0-.794-.494.354.354 0 0 0-.206.312v2.058a1.5 1.5 0 0 1-1.5 1.499H6.5A1.5 1.5 0 0 1 5 19.493V4.49A1.5 1.5 0 0 1 6.5 2.99h11.107a1.5 1.5 0 0 1 1.5 1.499v2.81a.64.64 0 0 0 .922.575.137.137 0 0 0 .078-.122V4.49c0-1.38-1.12-2.498-2.5-2.498z" fill="#000000" opacity="1" data-original="#000000"></path><path fill-rule="evenodd" d="M15.833 19.61a.5.5 0 0 1-.775-.417l.002-2.236 4.121-7.643a1.5 1.5 0 0 1 2.641 1.422l-4.12 7.642zm1.107-1.927-.881.582.001-1.056 4.001-7.421a.5.5 0 0 1 .88.474z" clip-rule="evenodd" fill="#000000" opacity="1" data-original="#000000"></path><path d="M8 7.995a.5.5 0 1 0 0 .999h8a.5.5 0 1 0 0-1zM7.5 5.497a.5.5 0 0 1 .5-.5h8a.5.5 0 1 1 0 1H8a.5.5 0 0 1-.5-.5zM8 10.992a.5.5 0 1 0 0 1h8a.5.5 0 1 0 0-1zM7.5 14.489a.5.5 0 0 1 .5-.5h6a.5.5 0 1 1 0 1H8a.5.5 0 0 1-.5-.5zM8 16.987a.5.5 0 1 0 0 .999h6a.5.5 0 1 0 0-1z" fill="#000000" opacity="1" data-original="#000000"></path></g></g></svg>