<svg xmlns="http://www.w3.org/2000/svg" version="1.1" xmlns:xlink="http://www.w3.org/1999/xlink" width="512" height="512" x="0" y="0" viewBox="0 0 469.333 469.333" style="enable-background:new 0 0 512 512" xml:space="preserve"><g><path d="M469.271 264.512c-.336-3.51-1.64-6.885-3.791-9.991l-95.975-138.667a21.335 21.335 0 0 0-17.537-9.188h-63.983c-5.894 0-10.664 4.771-10.664 10.667v21.333c0 5.896 4.77 10.667 10.664 10.667h52.799L414.617 256h-51.984c-23.515 0-42.655 19.135-42.655 42.667 0 11.76-9.56 21.333-21.328 21.333H170.684c-11.768 0-21.328-9.573-21.328-21.333 0-23.531-19.141-42.667-42.655-42.667H54.717l73.832-106.667h52.799c5.894 0 10.664-4.771 10.664-10.667v-21.333c0-5.896-4.77-10.667-10.664-10.667h-63.983a21.335 21.335 0 0 0-17.537 9.188L3.853 254.521c-2.151 3.105-3.455 6.672-3.791 10.182-.139.688 0 161.964 0 161.964 0 23.531 19.141 42.667 42.655 42.667h383.899c23.515 0 42.655-19.135 42.655-42.667 0 0 .14-161.468 0-162.155z" fill="#000000" opacity="1" data-original="#000000"></path><path d="m163.143 180.042-15.077 15.082c-4.166 4.165-4.166 10.919 0 15.085l71.521 71.542c4.166 4.167 9.622 6.25 15.079 6.25s10.914-2.083 15.079-6.25l71.521-71.542c4.166-4.165 4.166-10.919 0-15.085l-15.077-15.082c-4.166-4.165-10.916-4.165-15.082 0l-35.114 35.125v-204.5C255.994 4.775 251.22 0 245.331 0h-21.328c-5.889 0-10.664 4.775-10.664 10.667v204.5l-35.114-35.125c-4.166-4.166-10.917-4.166-15.082 0z" fill="#000000" opacity="1" data-original="#000000"></path></g></svg>