<svg width="186" height="29" viewBox="0 0 186 29" fill="none" xmlns="http://www.w3.org/2000/svg">
<path d="M36.992 21V4.2H40.208L47.36 16.056H45.656L52.688 4.2H55.88L55.928 21H52.28L52.256 9.792H52.928L47.312 19.224H45.56L39.824 9.792H40.64V21H36.992ZM62.3899 10.968H70.4779V13.992H62.3899V10.968ZM62.6779 17.88H71.8219V21H58.8139V4.2H71.5099V7.32H62.6779V17.88ZM73.8154 21V4.2H77.0314L86.9434 16.296H85.3834V4.2H89.2234V21H86.0314L76.0954 8.904H77.6554V21H73.8154ZM103.618 4.2H107.506V21H103.618V4.2ZM95.9863 21H92.0983V4.2H95.9863V21ZM103.906 14.112H95.6983V10.824H103.906V14.112ZM113.957 10.968H122.045V13.992H113.957V10.968ZM114.245 17.88H123.389V21H110.381V4.2H123.077V7.32H114.245V17.88ZM123.175 21L130.663 4.2H134.503L142.015 21H137.935L131.791 6.168H133.327L127.159 21H123.175ZM126.919 17.4L127.951 14.448H136.591L137.647 17.4H126.919ZM142.658 21V4.2H146.546V17.832H154.97V21H142.658ZM157.952 21V7.368H152.576V4.2H167.216V7.368H161.84V21H157.952ZM179.728 4.2H183.616V21H179.728V4.2ZM172.096 21H168.208V4.2H172.096V21ZM180.016 14.112H171.808V10.824H180.016V14.112Z" fill="#3B82F6"/>
<path d="M10.7016 22.0132L2.23125 14.1054C2.03437 13.9226 1.84688 13.7257 1.67344 13.5242H5.75156C6.81094 13.5242 7.76719 12.8867 8.175 11.907L8.66719 10.7257L10.9781 15.8586C11.1562 16.257 11.5453 16.5148 11.9813 16.5195C12.4172 16.5242 12.8156 16.2851 13.0125 15.8961L15 11.9164L15.0797 12.0757C15.525 12.9664 16.4344 13.5289 17.4281 13.5289H22.3266C22.1531 13.7304 21.9656 13.9273 21.7687 14.1101L13.2984 22.0132C12.9469 22.3414 12.4828 22.5242 12 22.5242C11.5172 22.5242 11.0531 22.3414 10.7016 22.0132ZM23.6109 11.2742H17.4234C17.2828 11.2742 17.1516 11.1945 17.0859 11.0679L15.9984 8.89761C15.8062 8.51793 15.4172 8.27418 14.9906 8.27418C14.5641 8.27418 14.175 8.51324 13.9828 8.89761L12.0422 12.7789L9.65156 7.4398C9.46875 7.03199 9.05625 6.76949 8.61094 6.77886C8.16562 6.78824 7.7625 7.05543 7.58906 7.47261L6.09844 11.0492C6.04219 11.1898 5.90156 11.2789 5.75156 11.2789H0.75C0.628125 11.2789 0.515625 11.2976 0.407812 11.3304C0.140625 10.5804 0 9.78355 0 8.97261V8.70074C0 5.42418 2.36719 2.63043 5.59688 2.09136C7.73438 1.73511 9.90938 2.43355 11.4375 3.96168L12 4.52418L12.5625 3.96168C14.0906 2.43355 16.2656 1.73511 18.4031 2.09136C21.6328 2.63043 24 5.42418 24 8.70074V8.97261C24 9.7648 23.8688 10.5429 23.6109 11.2742Z" fill="#F472B6"/>
</svg>
