<svg xmlns="http://www.w3.org/2000/svg" version="1.1" xmlns:xlink="http://www.w3.org/1999/xlink" width="512" height="512" x="0" y="0" viewBox="0 0 512 512" style="enable-background:new 0 0 512 512" xml:space="preserve"><g><path d="M259.187 0A252.826 252.826 0 0 0 8.76 218.114a255 255 0 0 0 25.1 149.429L.545 491.858a16 16 0 0 0 19.6 19.6l124.315-33.31a255.019 255.019 0 0 0 149.429 25.1A252.826 252.826 0 0 0 512 252.813 252.816 252.816 0 0 0 259.187 0zm156.138 408.953c-42.27 42.271-99.257 64.443-156.725 64.439a219.278 219.278 0 0 1-104.616-26.385 15.993 15.993 0 0 0-11.767-1.391l-103.59 27.757 27.757-103.59a16 16 0 0 0-1.391-11.767c-46.225-85.243-30.578-192.709 38.054-261.341 86.094-86.095 226.181-86.1 312.278 0s86.095 226.182 0 312.278zM383.06 176.676a21.925 21.925 0 0 0-22.148 0l-26.581 15.347a43.168 43.168 0 0 0-41.779-32.53h-131.6a43.142 43.142 0 0 0-43.093 43.094v106.825a43.141 43.141 0 0 0 43.093 43.093h131.6a43.168 43.168 0 0 0 41.779-32.529l26.58 15.346a22.149 22.149 0 0 0 33.225-19.181V195.858a21.926 21.926 0 0 0-11.076-19.182zm-79.414 132.736a11.107 11.107 0 0 1-11.094 11.093h-131.6a11.106 11.106 0 0 1-11.093-11.093V202.588a11.107 11.107 0 0 1 11.093-11.094h131.6a11.107 11.107 0 0 1 11.094 11.094zm58.49-10.334-26.49-15.294v-55.568l26.49-15.3z" fill="#000000" opacity="1" data-original="#000000"></path></g></svg>