<svg xmlns="http://www.w3.org/2000/svg" version="1.1" width="512" height="512" x="0" y="0" viewBox="0 0 66 66"
     style="enable-background:new 0 0 512 512" xml:space="preserve"><g><path d="M61.4 36.1c-1.9-1.9-4.3-3.1-7-3.5V10.2c0-2.7-2.2-4.9-4.9-4.9h-.8v-.9c0-1.5-1.2-2.8-2.8-2.8h-1.1c-1.5 0-2.8 1.2-2.8 2.8v.9h-5.1v-.9c0-1.5-1.2-2.8-2.8-2.8H33c-1.5 0-2.8 1.2-2.8 2.8v.9h-5.1v-.9c0-1.5-1.2-2.8-2.8-2.8h-1.1c-1.5 0-2.8 1.2-2.8 2.8v.9h-5.1v-.9c0-1.5-1.2-2.8-2.8-2.8h-.9C8 1.6 6.8 2.8 6.8 4.4v.9h-.9C3.2 5.3 1 7.5 1 10.2V50c0 2.8 2.2 5 4.9 5h40.2c1.9 1.2 4.2 2 6.6 2 3.4 0 6.4-1.4 8.6-3.6 2.2-2.2 3.6-5.3 3.6-8.6.1-3.5-1.3-6.5-3.5-8.7zM3 10.2c0-1.6 1.3-2.9 2.9-2.9h.8v.9C6.8 9.8 8 11 9.6 11h1.1c1.5 0 2.8-1.2 2.8-2.8v-.9h5.1v.9c0 1.5 1.2 2.8 2.8 2.8h1.1c1.5 0 2.8-1.2 2.8-2.8v-.9h5.1v.9c0 1.5 1.2 2.8 2.8 2.8h1.1c1.5 0 2.8-1.2 2.8-2.8v-.9H42v.9c0 1.5 1.2 2.8 2.8 2.8h1.1c1.5 0 2.8-1.2 2.8-2.8v-.9h.8c1.6 0 2.9 1.3 2.9 2.9v3.5H3zM5.9 53C4.3 53 3 51.7 3 50.1V15.8h49.4v16.7c-.8 0-1.5.1-2.2.3a3.4 3.4 0 0 0-3.4-3.2h-2.9c-1.9 0-3.4 1.5-3.4 3.4v3c0 1.1.6 2.2 1.5 2.8-1 1.8-1.6 3.8-1.6 6 0 3.2 1.2 6.1 3.2 8.3H5.9zm54.8-1.8-1-1c-.4-.4-1-.4-1.4 0s-.4 1 0 1.4l1 1c-1.5 1.3-3.4 2.1-5.5 2.3v-1.4c0-.5-.5-1-1-1-.6 0-1 .5-1 1v1.4c-2.1-.2-4-1-5.5-2.3l1-1c.4-.4.4-1 0-1.4s-1-.4-1.4 0l-1 1c-1.3-1.5-2.1-3.4-2.3-5.5H44c.5 0 1-.5 1-1 0-.6-.5-1-1-1h-1.4c.2-2.1 1-4 2.3-5.5l1 1c.2.2.5.3.7.3s.5-.1.7-.3c.4-.4.4-1 0-1.4l-1-1c1.5-1.3 3.4-2.1 5.5-2.3v1.4c0 .5.4 1 1 1 .5 0 1-.5 1-1v-1.4c2.1.2 4 1 5.5 2.3l-1 1c-.4.4-.4 1 0 1.4.2.2.4.3.7.3s.5-.1.7-.3l1-1c1.3 1.5 2.1 3.4 2.3 5.5h-1.4c-.6 0-1 .4-1 1 0 .5.4 1 1 1H63c-.2 2.1-1.1 4-2.3 5.5z" fill="#000000" opacity="1" data-original="#000000"></path><path d="M14.9 44.5v2.9c0 1.9-1.5 3.4-3.4 3.4H8.7c-1.9 0-3.4-1.5-3.4-3.4v-2.9c0-1.9 1.5-3.4 3.4-3.4h2.8c1.8 0 3.4 1.6 3.4 3.4zM26.6 44.5v2.9c0 1.9-1.5 3.4-3.4 3.4h-2.8c-1.9 0-3.4-1.5-3.4-3.4v-2.9c0-1.9 1.5-3.4 3.4-3.4h2.8c1.9 0 3.4 1.6 3.4 3.4zM38.4 44.5v2.9c0 1.9-1.5 3.4-3.4 3.4h-2.8c-1.9 0-3.4-1.5-3.4-3.4v-2.9c0-1.9 1.5-3.4 3.4-3.4H35c1.9 0 3.4 1.6 3.4 3.4zM38.4 32.9v2.9c0 1.9-1.5 3.4-3.4 3.4h-2.8c-1.9 0-3.4-1.5-3.4-3.4v-2.9c0-1.9 1.5-3.4 3.4-3.4H35c1.9 0 3.4 1.5 3.4 3.4zM26.6 32.9v2.9c0 1.9-1.5 3.4-3.4 3.4h-2.8c-1.9 0-3.4-1.5-3.4-3.4v-2.9c0-1.9 1.5-3.4 3.4-3.4h2.8c1.9 0 3.4 1.5 3.4 3.4zM14.9 32.9v2.9c0 1.9-1.5 3.4-3.4 3.4H8.7c-1.9 0-3.4-1.5-3.4-3.4v-2.9c0-1.9 1.5-3.4 3.4-3.4h2.8c1.8 0 3.4 1.5 3.4 3.4zM14.9 21.3v2.9c0 1.9-1.5 3.4-3.4 3.4H8.7c-1.9 0-3.4-1.5-3.4-3.4v-2.9c0-1.9 1.5-3.4 3.4-3.4h2.8c1.8 0 3.4 1.5 3.4 3.4zM26.6 21.3v2.9c0 1.9-1.5 3.4-3.4 3.4h-2.8c-1.9 0-3.4-1.5-3.4-3.4v-2.9c0-1.9 1.5-3.4 3.4-3.4h2.8c1.9 0 3.4 1.5 3.4 3.4zM50.2 21.3v2.9c0 1.9-1.5 3.4-3.4 3.4H44c-1.9 0-3.4-1.5-3.4-3.4v-2.9c0-1.9 1.5-3.4 3.4-3.4h2.8c1.8 0 3.4 1.5 3.4 3.4zM38.4 21.3v2.9c0 1.9-1.5 3.4-3.4 3.4h-2.8c-1.9 0-3.4-1.5-3.4-3.4v-2.9c0-1.9 1.5-3.4 3.4-3.4H35c1.9 0 3.4 1.5 3.4 3.4zM43.1 59.6l-6.2-2.9H4c-.4 0-.7.2-.9.5-1.3 2.2-1.3 4.5 0 6.7.2.3.5.5.9.5h32.5c.1 0 .3 0 .4-.1l6.2-2.9c.3-.2.6-.5.6-.9s-.2-.7-.6-.9zM6.2 62.4H4.6c-.6-1.2-.6-2.5 0-3.7h1.5v3.7zm31.3-.6v-2.6l2.8 1.3zM55.9 44.7c0 1.7-1.4 3.1-3.1 3.1-.5 0-1-.1-1.4-.3L49.9 49c-.2.2-.4.3-.7.3-.2 0-.5-.1-.7-.3-.4-.4-.4-1 0-1.4l1.4-1.4c-.2-.4-.3-.9-.3-1.4 0-1.4.9-2.6 2.1-3v-.9c0-.5.4-1 1-1 .5 0 1 .5 1 1v.9c1.3.4 2.2 1.5 2.2 2.9z" fill="#000000" opacity="1" data-original="#000000"></path></g></svg>