<svg xmlns="http://www.w3.org/2000/svg" viewBox="0 0 64 64" width="512" height="512">
    <g>
        <path d="M32 8c-2.5 0-4.5 2-4.5 4.5S29.5 17 32 17s4.5-2 4.5-4.5S34.5 8 32 8zm0 2c1.4 0 2.5 1.1 2.5 2.5S33.4 15 32 15s-2.5-1.1-2.5-2.5S30.6 10 32 10z"
              fill="#43a047"/>
        <path d="M32 12c-10 0-18 8-18 18 0 12 10 24 18 24s18-12 18-24c0-10-8-18-18-18z" fill="#e53935"/>
        <ellipse cx="24" cy="28" rx="1.5" ry="2" fill="#fff" opacity="0.7"/>
        <ellipse cx="40" cy="32" rx="1.5" ry="2" fill="#fff" opacity="0.7"/>
        <ellipse cx="32" cy="40" rx="1.5" ry="2" fill="#fff" opacity="0.7"/>
    </g>
</svg>