<svg xmlns="http://www.w3.org/2000/svg" version="1.1" width="512" height="512" x="0" y="0" viewBox="0 0 480.466 480.466"
     style="enable-background:new 0 0 512 512" xml:space="preserve"><g><path d="M230.005 182.122S100.319 322.849 85.302 339.127c-14.999 16.301-52.115 52.173-16.267 85.195 35.802 33.035 64.837-2.825 83.573-23.178 18.725-20.307 144.714-157 144.714-157l-67.317-62.022z" fill="#000000" opacity="1" data-original="#000000"></path><path
        d="M469.795 156.379 300.126 0l-33.992 36.864L288.8 57.755c-41.384 44.91-203.094 220.346-224.171 243.257l-3.912 4.204c-19.25 20.621-51.479 55.092-49.996 94.83.765 20.282 10.271 39.001 28.271 55.57 17.872 16.488 36.672 24.85 55.863 24.85 38.669 0 69.029-33.304 91.21-57.58l229.116-248.67 20.646 19.028 33.968-36.865zM173.4 401.272l-5.009 5.488c-19.18 20.995-45.424 49.791-73.537 49.791-13.178 0-26.151-6.072-39.649-18.521-13.324-12.283-20.056-25-20.581-38.908-1.109-29.752 26.857-59.693 43.562-77.582l4.028-4.309C103.32 294.287 265.06 118.809 306.397 73.968l91.186 84.046L173.4 401.272z"
        fill="#000000" opacity="1" data-original="#000000"></path></g></svg>