<svg xmlns="http://www.w3.org/2000/svg" version="1.1" xmlns:xlink="http://www.w3.org/1999/xlink" width="512" height="512" x="0" y="0" viewBox="0 0 64 64" style="enable-background:new 0 0 512 512" xml:space="preserve" class=""><g><path d="M11.4 26.8h-4v22.8c0 4.6 3.8 8.4 8.4 8.4h32.4c4.6 0 8.4-3.8 8.4-8.4V26.8h-4zm27 8.5c.7-.8 2.1-.7 2.8 0 2.2 2 4.3 4 6.5 6.1.8.8.7 2.1 0 2.8-2 2.2-4 4.3-6.1 6.5-.8.8-2.1.7-2.8 0-.8-.7-.7-2.1 0-2.8 1.5-1.7 3.1-3.3 4.6-5-1.7-1.6-3.4-3.2-5.1-4.7-.8-.9-.7-2.2.1-2.9zm-8 0c.7-.8 2.1-.7 2.8 0 2.2 2 4.3 4 6.5 6.1.8.8.7 2.1 0 2.8-2 2.2-4 4.3-6.1 6.5-.8.8-2.1.7-2.8 0-.8-.7-.7-2.1 0-2.8 1.5-1.7 3.1-3.3 4.6-5-1.7-1.6-3.4-3.2-5.1-4.7-.8-.9-.7-2.2.1-2.9zM52.6 22.8h4v-5.6c0-4.5-3.6-8.2-8.1-8.4v4.6c0 1.1-.9 2-2 2s-2-1-2-2V8.8H19.8v4.4c0 1.1-.9 2-2 2s-2-1-2-2V8.8c-4.6 0-8.4 3.8-8.4 8.4v5.6h4z" fill="#26a69a" opacity="1" data-original="#000000" class=""></path></g></svg>