<svg xmlns="http://www.w3.org/2000/svg" viewBox="0 0 48 48" width="512" height="512" fill="none">
    <!-- Core -->
    <circle cx="24" cy="24" r="10" fill="#f8bbd0" stroke="#ec407a" stroke-width="2"/>
    <!-- Spikes -->
    <g stroke="#ec407a" stroke-width="2">
        <line x1="24" y1="4" x2="24" y2="12"/>
        <line x1="24" y1="36" x2="24" y2="44"/>
        <line x1="4" y1="24" x2="12" y2="24"/>
        <line x1="36" y1="24" x2="44" y2="24"/>
        <line x1="10" y1="10" x2="16" y2="16"/>
        <line x1="38" y1="10" x2="32" y2="16"/>
        <line x1="10" y1="38" x2="16" y2="32"/>
        <line x1="38" y1="38" x2="32" y2="32"/>
    </g>
    <!-- Spike ends -->
    <circle cx="24" cy="4" r="2" fill="#ec407a"/>
    <circle cx="24" cy="44" r="2" fill="#ec407a"/>
    <circle cx="4" cy="24" r="2" fill="#ec407a"/>
    <circle cx="44" cy="24" r="2" fill="#ec407a"/>
    <circle cx="10" cy="10" r="2" fill="#ec407a"/>
    <circle cx="38" cy="10" r="2" fill="#ec407a"/>
    <circle cx="10" cy="38" r="2" fill="#ec407a"/>
    <circle cx="38" cy="38" r="2" fill="#ec407a"/>
</svg>